<svg xmlns="http://www.w3.org/2000/svg" xmlns:xlink="http://www.w3.org/1999/xlink" width="500" zoomAndPan="magnify" viewBox="0 0 375 374.999991" height="500" preserveAspectRatio="xMidYMid meet" version="1.0"><defs><g/><clipPath id="456cb1b33b"><path d="M 99.589844 68.386719 L 275.410156 68.386719 L 275.410156 299.148438 L 99.589844 299.148438 Z M 99.589844 68.386719 " clip-rule="nonzero"/></clipPath><clipPath id="2d5b476d4b"><path d="M 125 154 L 247 154 L 247 211.175781 L 125 211.175781 Z M 125 154 " clip-rule="nonzero"/></clipPath><clipPath id="452fe58829"><path d="M 145 73.816406 L 226 73.816406 L 226 139 L 145 139 Z M 145 73.816406 " clip-rule="nonzero"/></clipPath></defs><g clip-path="url(#456cb1b33b)"><path fill="#374249" d="M 99.589844 68.386719 L 275.410156 68.386719 L 275.410156 299.148438 L 99.589844 299.148438 Z M 99.589844 68.386719 " fill-opacity="1" fill-rule="nonzero"/></g><g clip-path="url(#2d5b476d4b)"><path fill="#00638d" d="M 245.390625 201.25 L 238.921875 167.644531 L 238.796875 167 C 238.46875 165.285156 237.410156 163.898438 235.859375 163.113281 C 234.988281 162.695312 233.957031 162.183594 232.757812 161.621094 C 231.636719 161.085938 230.375 160.507812 229.035156 159.886719 C 229.015625 159.863281 228.992188 159.863281 228.949219 159.863281 C 225.164062 158.089844 220.738281 156.097656 216.667969 154.425781 C 216.230469 154.964844 215.796875 155.484375 215.34375 156.015625 C 212.34375 159.679688 209.222656 163.359375 206.015625 166.914062 C 204.34375 168.777344 202.644531 170.601562 200.949219 172.335938 C 198.527344 174.820312 196.089844 177.15625 193.609375 179.308594 L 189.59375 163.519531 L 190.671875 158.949219 L 180.910156 158.949219 L 181.988281 163.519531 L 177.972656 179.308594 C 175.492188 177.15625 173.054688 174.820312 170.632812 172.335938 C 168.9375 170.601562 167.242188 168.777344 165.566406 166.914062 C 162.359375 163.359375 159.238281 159.679688 156.238281 156.015625 C 155.785156 155.484375 155.351562 154.964844 154.914062 154.425781 C 150.839844 156.097656 146.414062 158.089844 142.628906 159.863281 C 142.585938 159.863281 142.566406 159.863281 142.550781 159.886719 C 141.203125 160.507812 139.945312 161.085938 138.824219 161.621094 C 137.625 162.183594 136.59375 162.695312 135.722656 163.113281 C 134.171875 163.898438 133.117188 165.285156 132.785156 167 L 132.660156 167.644531 L 126.191406 201.25 L 125.113281 206.8125 C 125.113281 206.8125 125.484375 209.023438 126.476562 209.832031 C 127.449219 210.699219 128.652344 211.152344 130.035156 211.152344 L 241.542969 211.152344 C 242.929688 211.152344 244.132812 210.699219 245.101562 209.832031 C 246.097656 209.023438 246.46875 206.8125 246.46875 206.8125 L 245.390625 201.25 " fill-opacity="1" fill-rule="nonzero"/></g><g clip-path="url(#452fe58829)"><path fill="#00638d" d="M 148.703125 124.410156 C 149.03125 125.5 150.183594 126.121094 151.277344 125.796875 C 151.277344 125.796875 159.050781 123.808594 159.679688 123.5625 L 156.984375 111.882812 C 156.738281 110.355469 156.621094 108.8125 156.621094 107.265625 C 156.621094 91.136719 169.695312 78.066406 185.820312 78.066406 C 201.949219 78.066406 215.019531 91.136719 215.019531 107.265625 C 215.019531 108.8125 214.902344 110.355469 214.660156 111.882812 L 212.878906 119.59375 C 212.464844 121.390625 212.242188 123.246094 211.382812 124.890625 C 207.824219 131.691406 198.117188 132.753906 190.960938 133.042969 C 190.304688 131.554688 188.824219 130.511719 187.089844 130.511719 L 183.148438 130.511719 C 180.808594 130.511719 178.914062 132.402344 178.914062 134.738281 C 178.914062 137.074219 180.808594 138.964844 183.148438 138.964844 L 187.089844 138.964844 C 188.90625 138.964844 190.441406 137.820312 191.039062 136.214844 C 200.175781 135.820312 211.605469 134.183594 214.996094 124.453125 L 220.304688 126.050781 C 221.398438 126.375 222.550781 125.757812 222.878906 124.664062 L 225.515625 115.890625 C 226.570312 112.378906 224.578125 108.675781 221.066406 107.621094 L 219.242188 107.074219 C 219.140625 88.695312 204.207031 73.839844 185.820312 73.839844 C 167.523438 73.839844 152.667969 88.546875 152.417969 106.796875 L 150.515625 107.367188 C 147.003906 108.425781 145.015625 112.125 146.066406 115.632812 L 148.703125 124.410156 " fill-opacity="1" fill-rule="nonzero"/></g><path fill="#00638d" d="M 203.355469 121.496094 C 203.046875 123.71875 202.71875 125.757812 202.28125 127.652344 C 204.902344 126.742188 207.035156 125.359375 208.164062 123.207031 C 208.582031 122.40625 208.78125 121.351562 209.039062 120.132812 C 209.039062 120.113281 209.054688 120.113281 209.039062 120.09375 C 209.691406 114.613281 209.925781 109.09375 209.925781 103.554688 C 209.925781 102.222656 209.78125 100.898438 209.53125 99.601562 C 208.601562 95.195312 206.164062 91.207031 202.460938 88.511719 C 195.921875 83.734375 189.328125 83.265625 187.054688 83.265625 C 186.503906 83.265625 186.214844 83.304688 186.214844 83.304688 C 186.214844 83.304688 186.050781 83.304688 185.796875 83.28125 C 185.527344 83.304688 185.375 83.304688 185.375 83.304688 C 185.375 83.304688 185.085938 83.265625 184.535156 83.265625 C 182.265625 83.265625 175.671875 83.734375 169.128906 88.511719 C 167.492188 89.714844 166.085938 91.167969 164.972656 92.8125 C 162.828125 95.921875 161.664062 99.675781 161.664062 103.554688 C 161.664062 108.855469 161.863281 114.175781 162.460938 119.4375 C 162.519531 119.984375 162.589844 120.550781 162.664062 121.097656 C 162.699219 121.480469 162.753906 121.859375 162.808594 122.246094 C 162.988281 123.519531 163.171875 124.796875 163.390625 126.03125 C 164.429688 132.027344 166.175781 137.671875 170.460938 142.371094 C 173.996094 146.707031 179.347656 149.457031 185.375 149.457031 C 185.503906 149.457031 185.648438 149.4375 185.796875 149.4375 C 185.921875 149.4375 186.070312 149.457031 186.214844 149.457031 C 192.242188 149.457031 197.601562 146.707031 201.132812 142.371094 C 202.410156 140.984375 203.445312 139.492188 204.300781 137.960938 C 201.554688 138.820312 198.78125 139.253906 196.375 139.492188 C 193.832031 142.332031 190.203125 143.957031 186.34375 143.988281 C 186.199219 143.988281 186.050781 143.972656 185.890625 143.972656 L 185.6875 143.972656 C 185.542969 143.972656 185.398438 143.972656 185.230469 143.988281 C 181.132812 143.957031 177.289062 142.117188 174.683594 138.929688 L 174.503906 138.691406 C 170.660156 134.464844 169.242188 128.984375 168.21875 121.496094 C 167.820312 118.617188 167.527344 115.613281 167.363281 112.40625 C 169.242188 110.203125 171.476562 108.347656 174.011719 106.945312 C 178.054688 110.003906 183.082031 111.804688 188.546875 111.804688 C 192.828125 111.804688 196.851562 110.695312 200.332031 108.726562 C 201.804688 107.910156 203.191406 106.945312 204.445312 105.832031 C 204.429688 108.109375 204.339844 110.292969 204.226562 112.40625 C 204.046875 115.613281 203.753906 118.617188 203.355469 121.496094 " fill-opacity="1" fill-rule="nonzero"/><g fill="#00638d" fill-opacity="1"><g transform="translate(118.769222, 249.374714)"><g><path d="M 23.589844 -2.339844 L 23.589844 -10.996094 L 15.589844 -10.996094 L 15.589844 -7.675781 L 19.53125 -7.675781 L 19.53125 -4.089844 C 17.75 -3.496094 16.0625 -3.320312 13.929688 -3.320312 C 8.949219 -3.320312 6.046875 -6.015625 6.046875 -10.996094 C 6.046875 -15.617188 8.890625 -18.078125 13.601562 -18.078125 C 15.824219 -18.078125 17.691406 -17.722656 19.617188 -16.890625 L 19.617188 -14.699219 L 23.054688 -14.699219 L 23.054688 -19.113281 C 19.945312 -20.832031 17.160156 -21.542969 13.601562 -21.542969 C 6.28125 -21.542969 1.601562 -17.839844 1.601562 -10.667969 C 1.601562 -3.40625 6.488281 0.148438 13.929688 0.148438 C 17.75 0.148438 20.183594 -0.679688 23.589844 -2.339844 Z M 23.589844 -2.339844 "/></g></g></g><g fill="#00638d" fill-opacity="1"><g transform="translate(144.309343, 249.374714)"><g><path d="M 2.105469 0 L 19.796875 0 L 19.796875 -5.214844 L 16.359375 -5.214844 L 16.359375 -3.320312 L 8.773438 -3.320312 L 8.773438 -9.363281 L 16.804688 -9.363281 L 16.804688 -12.714844 L 8.773438 -12.714844 L 8.773438 -18.078125 L 15.320312 -18.078125 L 15.320312 -16.179688 L 18.757812 -16.179688 L 18.757812 -21.398438 L 2.105469 -21.398438 L 2.105469 -18.078125 L 4.328125 -18.078125 L 4.328125 -3.320312 L 2.105469 -3.320312 Z M 2.105469 0 "/></g></g></g><g fill="#00638d" fill-opacity="1"><g transform="translate(165.345873, 249.374714)"><g><path d="M 9.632812 0.148438 C 14.582031 0.148438 18.757812 -1.363281 18.757812 -5.75 C 18.757812 -9.542969 15.558594 -10.933594 11.914062 -12.417969 C 9.363281 -13.453125 6.578125 -14.460938 6.578125 -16.0625 L 6.578125 -16.09375 C 6.578125 -17.601562 8.148438 -18.226562 10.046875 -18.226562 C 11.4375 -18.226562 12.625 -17.898438 13.78125 -17.457031 L 13.78125 -15.203125 L 17.21875 -15.203125 L 17.21875 -19.589844 C 14.875 -20.773438 12.890625 -21.398438 10.195312 -21.398438 C 5.691406 -21.398438 2.132812 -19.738281 2.132812 -15.824219 C 2.132812 -12.121094 5.335938 -10.789062 8.921875 -9.335938 C 11.527344 -8.296875 14.3125 -7.347656 14.3125 -5.660156 C 14.3125 -4.179688 12.210938 -3.320312 9.808594 -3.320312 C 8.210938 -3.320312 6.933594 -3.675781 5.601562 -4.296875 L 5.601562 -6.253906 L 2.191406 -6.253906 L 2.191406 -1.570312 L 2.222656 -1.570312 C 4.683594 -0.296875 6.785156 0.148438 9.632812 0.148438 Z M 9.632812 0.148438 "/></g></g></g><g fill="#00638d" fill-opacity="1"><g transform="translate(185.582414, 249.374714)"><g><path d="M 5.777344 0 L 14.730469 0 L 14.730469 -3.320312 L 12.507812 -3.320312 L 12.507812 -17.871094 L 16.417969 -17.871094 L 16.417969 -16.152344 L 19.855469 -16.152344 L 19.855469 -21.398438 L 0.710938 -21.398438 L 0.710938 -16.152344 L 4.121094 -16.152344 L 4.121094 -17.871094 L 8.0625 -17.871094 L 8.0625 -3.320312 L 5.777344 -3.320312 Z M 5.777344 0 "/></g></g></g><g fill="#00638d" fill-opacity="1"><g transform="translate(206.144874, 249.374714)"><g><path d="M 15.617188 -22.878906 C 18.078125 -22.878906 19.320312 -24.566406 20.210938 -26.9375 C 18.523438 -27.738281 18.492188 -27.738281 18.492188 -27.738281 C 18.492188 -27.738281 18.492188 -27.769531 16.742188 -28.597656 C 16.328125 -27.53125 15.824219 -26.851562 15.113281 -26.851562 C 14.195312 -26.851562 13.691406 -27.117188 13.011719 -27.648438 C 11.914062 -28.480469 11.144531 -28.835938 9.867188 -28.835938 C 7.46875 -28.835938 6.105469 -27.117188 5.214844 -24.773438 C 6.847656 -23.945312 6.847656 -23.945312 6.875 -23.945312 L 8.503906 -23.085938 C 9.070312 -24.359375 9.601562 -24.894531 10.34375 -24.894531 C 11.171875 -24.894531 11.617188 -24.597656 12.238281 -24.125 C 13.453125 -23.203125 14.226562 -22.878906 15.617188 -22.878906 Z M 15.292969 -9.070312 L 9.601562 -9.070312 C 10.578125 -11.5 11.585938 -13.957031 12.59375 -16.386719 C 13.484375 -13.957031 14.375 -11.5 15.292969 -9.070312 Z M -0.117188 0 L 9.246094 0 L 9.246094 -3.320312 L 7.230469 -3.320312 C 7.558594 -4.058594 7.851562 -4.800781 8.148438 -5.542969 L 16.597656 -5.542969 C 16.863281 -4.800781 17.160156 -4.058594 17.425781 -3.320312 L 15.171875 -3.320312 L 15.171875 0 L 24.539062 0 L 24.539062 -3.320312 L 22.019531 -3.320312 C 19.617188 -9.363281 17.097656 -15.320312 14.730469 -21.398438 L 10.667969 -21.398438 C 8 -15.320312 5.15625 -9.363281 2.429688 -3.320312 L -0.117188 -3.320312 Z M -0.117188 0 "/></g></g></g><g fill="#00638d" fill-opacity="1"><g transform="translate(231.062783, 249.374714)"><g><path d="M 1.601562 -10.667969 C 1.601562 -3.941406 5.75 0.148438 12.476562 0.148438 C 19.320312 0.148438 23.558594 -3.972656 23.558594 -10.757812 C 23.558594 -17.425781 19.441406 -21.542969 12.714844 -21.542969 C 5.867188 -21.542969 1.601562 -17.425781 1.601562 -10.667969 Z M 6.046875 -10.667969 C 6.046875 -15.054688 8.089844 -18.046875 12.417969 -18.046875 C 16.773438 -18.046875 19.113281 -15.203125 19.113281 -10.757812 C 19.113281 -6.34375 17.011719 -3.378906 12.683594 -3.378906 C 8.296875 -3.378906 6.046875 -6.222656 6.046875 -10.667969 Z M 6.046875 -10.667969 "/></g></g></g><g fill="#ffffff" fill-opacity="1"><g transform="translate(98.04724, 290.582591)"><g><path d="M 1.273438 0 L 10.222656 0 L 10.222656 -3.320312 L 7.972656 -3.320312 L 7.972656 -9.070312 L 18.996094 -9.070312 L 18.996094 -3.320312 L 16.742188 -3.320312 L 16.742188 0 L 25.722656 0 L 25.722656 -3.320312 L 23.441406 -3.320312 L 23.441406 -18.078125 L 25.722656 -18.078125 L 25.722656 -21.398438 L 16.742188 -21.398438 L 16.742188 -18.078125 L 18.996094 -18.078125 L 18.996094 -12.417969 L 7.972656 -12.417969 L 7.972656 -18.078125 L 10.222656 -18.078125 L 10.222656 -21.398438 L 1.273438 -21.398438 L 1.273438 -18.078125 L 3.527344 -18.078125 L 3.527344 -3.320312 L 1.273438 -3.320312 Z M 1.273438 0 "/></g></g></g><g fill="#ffffff" fill-opacity="1"><g transform="translate(125.009551, 290.582591)"><g><path d="M 2.105469 0 L 19.796875 0 L 19.796875 -5.214844 L 16.359375 -5.214844 L 16.359375 -3.320312 L 8.773438 -3.320312 L 8.773438 -9.363281 L 16.804688 -9.363281 L 16.804688 -12.714844 L 8.773438 -12.714844 L 8.773438 -18.078125 L 15.320312 -18.078125 L 15.320312 -16.179688 L 18.757812 -16.179688 L 18.757812 -21.398438 L 2.105469 -21.398438 L 2.105469 -18.078125 L 4.328125 -18.078125 L 4.328125 -3.320312 L 2.105469 -3.320312 Z M 2.105469 0 "/></g></g></g><g fill="#ffffff" fill-opacity="1"><g transform="translate(146.046082, 290.582591)"><g><path d="M 1.273438 0 L 18.757812 0 L 18.757812 -5.214844 L 15.351562 -5.214844 L 15.351562 -3.320312 L 8 -3.320312 L 8 -18.078125 L 10.222656 -18.078125 L 10.222656 -21.398438 L 1.273438 -21.398438 L 1.273438 -18.078125 L 3.554688 -18.078125 L 3.554688 -3.320312 L 1.273438 -3.320312 Z M 1.273438 0 "/></g></g></g><g fill="#ffffff" fill-opacity="1"><g transform="translate(165.364129, 290.582591)"><g><path d="M 11.558594 -10.578125 C 10.492188 -10.578125 9.632812 -10.726562 8.742188 -11.023438 L 8.742188 -18.078125 L 10.253906 -18.078125 C 13.246094 -18.078125 15.527344 -16.921875 15.527344 -14.3125 C 15.527344 -11.855469 13.898438 -10.578125 11.558594 -10.578125 Z M 2.074219 0 L 11.054688 0 L 11.054688 -3.320312 L 8.742188 -3.320312 L 8.742188 -7.734375 C 9.839844 -7.46875 10.964844 -7.320312 12.0625 -7.320312 C 16.804688 -7.410156 19.945312 -9.542969 19.945312 -14.195312 C 19.945312 -18.996094 16.03125 -21.398438 10.875 -21.398438 L 2.074219 -21.398438 L 2.074219 -18.078125 L 4.328125 -18.078125 L 4.328125 -3.320312 L 2.074219 -3.320312 Z M 2.074219 0 "/></g></g></g><g fill="#ffffff" fill-opacity="1"><g transform="translate(186.341396, 290.582591)"><g><path d="M 2.105469 0 L 12.59375 0 C 20.003906 0 24.332031 -3.320312 24.332031 -10.492188 C 24.332031 -17.871094 20.003906 -21.398438 12.417969 -21.398438 L 2.105469 -21.398438 L 2.105469 -18.078125 L 4.296875 -18.078125 L 4.296875 -3.320312 L 2.105469 -3.320312 Z M 12.210938 -18.078125 C 17.335938 -18.078125 19.914062 -15.441406 19.914062 -10.371094 C 19.914062 -5.75 17.574219 -3.320312 12.949219 -3.320312 L 8.710938 -3.320312 L 8.710938 -18.078125 Z M 12.210938 -18.078125 "/></g></g></g><g fill="#ffffff" fill-opacity="1"><g transform="translate(212.266688, 290.582591)"><g><path d="M 2.105469 0 L 19.796875 0 L 19.796875 -5.214844 L 16.359375 -5.214844 L 16.359375 -3.320312 L 8.773438 -3.320312 L 8.773438 -9.363281 L 16.804688 -9.363281 L 16.804688 -12.714844 L 8.773438 -12.714844 L 8.773438 -18.078125 L 15.320312 -18.078125 L 15.320312 -16.179688 L 18.757812 -16.179688 L 18.757812 -21.398438 L 2.105469 -21.398438 L 2.105469 -18.078125 L 4.328125 -18.078125 L 4.328125 -3.320312 L 2.105469 -3.320312 Z M 2.105469 0 "/></g></g></g><g fill="#ffffff" fill-opacity="1"><g transform="translate(233.303218, 290.582591)"><g><path d="M 9.632812 0.148438 C 14.582031 0.148438 18.757812 -1.363281 18.757812 -5.75 C 18.757812 -9.542969 15.558594 -10.933594 11.914062 -12.417969 C 9.363281 -13.453125 6.578125 -14.460938 6.578125 -16.0625 L 6.578125 -16.09375 C 6.578125 -17.601562 8.148438 -18.226562 10.046875 -18.226562 C 11.4375 -18.226562 12.625 -17.898438 13.78125 -17.457031 L 13.78125 -15.203125 L 17.21875 -15.203125 L 17.21875 -19.589844 C 14.875 -20.773438 12.890625 -21.398438 10.195312 -21.398438 C 5.691406 -21.398438 2.132812 -19.738281 2.132812 -15.824219 C 2.132812 -12.121094 5.335938 -10.789062 8.921875 -9.335938 C 11.527344 -8.296875 14.3125 -7.347656 14.3125 -5.660156 C 14.3125 -4.179688 12.210938 -3.320312 9.808594 -3.320312 C 8.210938 -3.320312 6.933594 -3.675781 5.601562 -4.296875 L 5.601562 -6.253906 L 2.191406 -6.253906 L 2.191406 -1.570312 L 2.222656 -1.570312 C 4.683594 -0.296875 6.785156 0.148438 9.632812 0.148438 Z M 9.632812 0.148438 "/></g></g></g><g fill="#ffffff" fill-opacity="1"><g transform="translate(253.539759, 290.582591)"><g><path d="M 1.273438 0 L 9.867188 0 L 9.867188 -3.320312 L 7.914062 -3.320312 L 7.914062 -10.136719 L 17.574219 0 C 17.960938 0 18.253906 0 18.523438 -0.03125 L 18.523438 0 L 22.582031 0 L 22.582031 -3.320312 L 19.824219 -3.320312 L 12.03125 -11.261719 L 18.878906 -18.078125 L 21.457031 -18.078125 L 21.457031 -21.398438 L 11.734375 -21.398438 L 11.734375 -18.078125 L 13.632812 -18.078125 L 7.914062 -12.328125 L 7.914062 -18.078125 L 9.511719 -18.078125 L 9.511719 -21.398438 L 1.273438 -21.398438 L 1.273438 -18.078125 L 3.496094 -18.078125 L 3.496094 -3.320312 L 1.273438 -3.320312 Z M 1.273438 0 "/></g></g></g></svg>