<svg xmlns="http://www.w3.org/2000/svg" xmlns:xlink="http://www.w3.org/1999/xlink" width="500" zoomAndPan="magnify" viewBox="0 0 375 374.999991" height="500" preserveAspectRatio="xMidYMid meet" version="1.0"><defs><g/><clipPath id="207985b8a6"><path d="M 119 137 L 252 137 L 252 199.433594 L 119 199.433594 Z M 119 137 " clip-rule="nonzero"/></clipPath><clipPath id="2194b23bbb"><path d="M 141 49.433594 L 230 49.433594 L 230 121 L 141 121 Z M 141 49.433594 " clip-rule="nonzero"/></clipPath></defs><g clip-path="url(#207985b8a6)"><path fill="#00638d" d="M 250.71875 188.589844 L 243.652344 151.890625 L 243.515625 151.191406 C 243.15625 149.316406 242.003906 147.804688 240.3125 146.945312 C 239.359375 146.492188 238.230469 145.929688 236.925781 145.316406 C 235.699219 144.734375 234.320312 144.097656 232.859375 143.421875 C 232.835938 143.398438 232.8125 143.398438 232.765625 143.398438 C 228.628906 141.457031 223.800781 139.285156 219.351562 137.457031 C 218.875 138.046875 218.402344 138.613281 217.90625 139.195312 C 214.632812 143.195312 211.21875 147.214844 207.71875 151.097656 C 205.894531 153.128906 204.039062 155.121094 202.1875 157.019531 C 199.542969 159.726562 196.878906 162.28125 194.171875 164.628906 L 189.789062 147.386719 L 190.964844 142.398438 L 180.300781 142.398438 L 181.480469 147.386719 L 177.097656 164.628906 C 174.386719 162.28125 171.722656 159.726562 169.078125 157.019531 C 167.226562 155.121094 165.378906 153.128906 163.546875 151.097656 C 160.046875 147.214844 156.636719 143.195312 153.359375 139.195312 C 152.863281 138.613281 152.394531 138.046875 151.917969 137.457031 C 147.46875 139.285156 142.632812 141.457031 138.5 143.398438 C 138.453125 143.398438 138.429688 143.398438 138.414062 143.421875 C 136.941406 144.097656 135.566406 144.734375 134.34375 145.316406 C 133.035156 145.929688 131.910156 146.492188 130.960938 146.945312 C 129.265625 147.804688 128.113281 149.316406 127.75 151.191406 L 127.613281 151.890625 L 120.550781 188.589844 L 119.371094 194.664062 C 119.371094 194.664062 119.777344 197.082031 120.863281 197.964844 C 121.921875 198.914062 123.234375 199.40625 124.746094 199.40625 L 246.515625 199.40625 C 248.03125 199.40625 249.34375 198.914062 250.40625 197.964844 C 251.488281 197.082031 251.894531 194.664062 251.894531 194.664062 L 250.71875 188.589844 " fill-opacity="1" fill-rule="nonzero"/></g><g clip-path="url(#2194b23bbb)"><path fill="#00638d" d="M 145.132812 104.679688 C 145.492188 105.871094 146.75 106.550781 147.945312 106.195312 C 147.945312 106.195312 156.433594 104.023438 157.121094 103.753906 L 154.179688 91 C 153.90625 89.332031 153.78125 87.648438 153.78125 85.957031 C 153.78125 68.347656 168.054688 54.074219 185.667969 54.074219 C 203.277344 54.074219 217.550781 68.347656 217.550781 85.957031 C 217.550781 87.648438 217.425781 89.332031 217.160156 91 L 215.214844 99.417969 C 214.761719 101.382812 214.519531 103.410156 213.578125 105.203125 C 209.691406 112.632812 199.09375 113.792969 191.277344 114.109375 C 190.5625 112.484375 188.945312 111.34375 187.054688 111.34375 L 182.746094 111.34375 C 180.195312 111.34375 178.125 113.410156 178.125 115.960938 C 178.125 118.511719 180.195312 120.578125 182.746094 120.578125 L 187.054688 120.578125 C 189.035156 120.578125 190.710938 119.324219 191.367188 117.574219 C 201.34375 117.144531 213.824219 115.351562 217.527344 104.726562 L 223.320312 106.46875 C 224.519531 106.824219 225.773438 106.152344 226.136719 104.957031 L 229.011719 95.378906 C 230.167969 91.542969 227.988281 87.5 224.152344 86.347656 L 222.164062 85.746094 C 222.050781 65.679688 205.742188 49.457031 185.667969 49.457031 C 165.6875 49.457031 149.464844 65.515625 149.1875 85.449219 L 147.113281 86.070312 C 143.277344 87.222656 141.105469 91.265625 142.253906 95.097656 L 145.132812 104.679688 " fill-opacity="1" fill-rule="nonzero"/></g><path fill="#00638d" d="M 204.8125 101.5 C 204.476562 103.925781 204.117188 106.152344 203.640625 108.222656 C 206.503906 107.226562 208.832031 105.71875 210.066406 103.367188 C 210.523438 102.496094 210.738281 101.339844 211.019531 100.007812 C 211.019531 99.988281 211.039062 99.988281 211.019531 99.964844 C 211.734375 93.980469 211.992188 87.953125 211.992188 81.90625 C 211.992188 80.453125 211.832031 79.003906 211.558594 77.589844 C 210.542969 72.777344 207.878906 68.421875 203.835938 65.476562 C 196.699219 60.265625 189.496094 59.75 187.011719 59.75 C 186.414062 59.75 186.097656 59.792969 186.097656 59.792969 C 186.097656 59.792969 185.917969 59.792969 185.636719 59.769531 C 185.34375 59.792969 185.179688 59.792969 185.179688 59.792969 C 185.179688 59.792969 184.863281 59.75 184.265625 59.75 C 181.785156 59.75 174.582031 60.265625 167.4375 65.476562 C 165.648438 66.792969 164.117188 68.378906 162.902344 70.175781 C 160.554688 73.570312 159.285156 77.667969 159.285156 81.90625 C 159.285156 87.695312 159.503906 93.503906 160.160156 99.25 C 160.21875 99.847656 160.300781 100.464844 160.378906 101.0625 C 160.414062 101.480469 160.476562 101.894531 160.539062 102.316406 C 160.734375 103.710938 160.933594 105.101562 161.171875 106.453125 C 162.308594 113 164.214844 119.160156 168.890625 124.296875 C 172.75 129.03125 178.597656 132.035156 185.179688 132.035156 C 185.320312 132.035156 185.480469 132.011719 185.636719 132.011719 C 185.777344 132.011719 185.9375 132.035156 186.097656 132.035156 C 192.679688 132.035156 198.53125 129.03125 202.390625 124.296875 C 203.78125 122.78125 204.914062 121.152344 205.847656 119.480469 C 202.847656 120.417969 199.820312 120.890625 197.191406 121.152344 C 194.414062 124.253906 190.449219 126.023438 186.234375 126.0625 C 186.078125 126.0625 185.917969 126.042969 185.742188 126.042969 L 185.519531 126.042969 C 185.363281 126.042969 185.203125 126.042969 185.019531 126.0625 C 180.546875 126.023438 176.347656 124.015625 173.503906 120.535156 L 173.308594 120.277344 C 169.113281 115.660156 167.558594 109.675781 166.441406 101.5 C 166.007812 98.355469 165.691406 95.074219 165.507812 91.574219 C 167.558594 89.167969 170.003906 87.140625 172.769531 85.609375 C 177.183594 88.949219 182.675781 90.914062 188.644531 90.914062 C 193.320312 90.914062 197.710938 89.707031 201.511719 87.554688 C 203.121094 86.664062 204.636719 85.609375 206.003906 84.394531 C 205.988281 86.878906 205.890625 89.265625 205.765625 91.574219 C 205.570312 95.074219 205.25 98.355469 204.8125 101.5 " fill-opacity="1" fill-rule="nonzero"/><g fill="#00638d" fill-opacity="1"><g transform="translate(112.444334, 241.145403)"><g><path d="M 25.761719 -2.554688 L 25.761719 -12.007812 L 17.023438 -12.007812 L 17.023438 -8.382812 L 21.328125 -8.382812 L 21.328125 -4.464844 C 19.386719 -3.820312 17.539062 -3.625 15.210938 -3.625 C 9.773438 -3.625 6.601562 -6.570312 6.601562 -12.007812 C 6.601562 -17.054688 9.707031 -19.742188 14.855469 -19.742188 C 17.28125 -19.742188 19.320312 -19.351562 21.425781 -18.445312 L 21.425781 -16.050781 L 25.179688 -16.050781 L 25.179688 -20.875 C 21.78125 -22.75 18.738281 -23.527344 14.855469 -23.527344 C 6.859375 -23.527344 1.746094 -19.480469 1.746094 -11.652344 C 1.746094 -3.722656 7.085938 0.160156 15.210938 0.160156 C 19.386719 0.160156 22.039062 -0.746094 25.761719 -2.554688 Z M 25.761719 -2.554688 "/></g></g></g><g fill="#00638d" fill-opacity="1"><g transform="translate(140.334763, 241.145403)"><g><path d="M 2.296875 0 L 21.617188 0 L 21.617188 -5.695312 L 17.863281 -5.695312 L 17.863281 -3.625 L 9.578125 -3.625 L 9.578125 -10.226562 L 18.347656 -10.226562 L 18.347656 -13.882812 L 9.578125 -13.882812 L 9.578125 -19.742188 L 16.730469 -19.742188 L 16.730469 -17.671875 L 20.484375 -17.671875 L 20.484375 -23.367188 L 2.296875 -23.367188 L 2.296875 -19.742188 L 4.726562 -19.742188 L 4.726562 -3.625 L 2.296875 -3.625 Z M 2.296875 0 "/></g></g></g><g fill="#00638d" fill-opacity="1"><g transform="translate(163.307162, 241.145403)"><g><path d="M 10.519531 0.160156 C 15.921875 0.160156 20.484375 -1.488281 20.484375 -6.277344 C 20.484375 -10.421875 16.992188 -11.941406 13.007812 -13.558594 C 10.226562 -14.691406 7.183594 -15.792969 7.183594 -17.539062 L 7.183594 -17.574219 C 7.183594 -19.222656 8.898438 -19.902344 10.972656 -19.902344 C 12.492188 -19.902344 13.785156 -19.546875 15.046875 -19.0625 L 15.046875 -16.601562 L 18.800781 -16.601562 L 18.800781 -21.390625 C 16.246094 -22.6875 14.078125 -23.367188 11.132812 -23.367188 C 6.214844 -23.367188 2.332031 -21.554688 2.332031 -17.28125 C 2.332031 -13.234375 5.824219 -11.78125 9.742188 -10.195312 C 12.589844 -9.0625 15.632812 -8.027344 15.632812 -6.179688 C 15.632812 -4.5625 13.332031 -3.625 10.710938 -3.625 C 8.964844 -3.625 7.574219 -4.011719 6.117188 -4.691406 L 6.117188 -6.828125 L 2.394531 -6.828125 L 2.394531 -1.714844 L 2.425781 -1.714844 C 5.113281 -0.324219 7.410156 0.160156 10.519531 0.160156 Z M 10.519531 0.160156 "/></g></g></g><g fill="#00638d" fill-opacity="1"><g transform="translate(185.405954, 241.145403)"><g><path d="M 6.3125 0 L 16.085938 0 L 16.085938 -3.625 L 13.65625 -3.625 L 13.65625 -19.515625 L 17.929688 -19.515625 L 17.929688 -17.636719 L 21.683594 -17.636719 L 21.683594 -23.367188 L 0.777344 -23.367188 L 0.777344 -17.636719 L 4.5 -17.636719 L 4.5 -19.515625 L 8.800781 -19.515625 L 8.800781 -3.625 L 6.3125 -3.625 Z M 6.3125 0 "/></g></g></g><g fill="#00638d" fill-opacity="1"><g transform="translate(207.860657, 241.145403)"><g><path d="M 17.054688 -24.984375 C 19.742188 -24.984375 21.101562 -26.828125 22.070312 -29.417969 C 20.226562 -30.292969 20.195312 -30.292969 20.195312 -30.292969 C 20.195312 -30.292969 20.195312 -30.324219 18.285156 -31.230469 C 17.832031 -30.066406 17.28125 -29.320312 16.503906 -29.320312 C 15.5 -29.320312 14.953125 -29.613281 14.207031 -30.195312 C 13.007812 -31.101562 12.167969 -31.488281 10.777344 -31.488281 C 8.15625 -31.488281 6.667969 -29.613281 5.695312 -27.054688 C 7.476562 -26.148438 7.476562 -26.148438 7.507812 -26.148438 L 9.289062 -25.210938 C 9.902344 -26.601562 10.484375 -27.183594 11.292969 -27.183594 C 12.199219 -27.183594 12.6875 -26.859375 13.367188 -26.34375 C 14.691406 -25.339844 15.535156 -24.984375 17.054688 -24.984375 Z M 16.699219 -9.902344 L 10.484375 -9.902344 C 11.554688 -12.558594 12.652344 -15.242188 13.753906 -17.894531 C 14.726562 -15.242188 15.695312 -12.558594 16.699219 -9.902344 Z M -0.128906 0 L 10.097656 0 L 10.097656 -3.625 L 7.894531 -3.625 C 8.253906 -4.433594 8.574219 -5.242188 8.898438 -6.050781 L 18.121094 -6.050781 C 18.414062 -5.242188 18.738281 -4.433594 19.027344 -3.625 L 16.570312 -3.625 L 16.570312 0 L 26.796875 0 L 26.796875 -3.625 L 24.046875 -3.625 C 21.425781 -10.226562 18.671875 -16.730469 16.085938 -23.367188 L 11.652344 -23.367188 C 8.738281 -16.730469 5.632812 -10.226562 2.652344 -3.625 L -0.128906 -3.625 Z M -0.128906 0 "/></g></g></g><g fill="#00638d" fill-opacity="1"><g transform="translate(235.071616, 241.145403)"><g><path d="M 1.746094 -11.652344 C 1.746094 -4.304688 6.277344 0.160156 13.625 0.160156 C 21.101562 0.160156 25.726562 -4.335938 25.726562 -11.746094 C 25.726562 -19.027344 21.230469 -23.527344 13.882812 -23.527344 C 6.40625 -23.527344 1.746094 -19.027344 1.746094 -11.652344 Z M 6.601562 -11.652344 C 6.601562 -16.441406 8.835938 -19.707031 13.558594 -19.707031 C 18.316406 -19.707031 20.875 -16.601562 20.875 -11.746094 C 20.875 -6.925781 18.574219 -3.6875 13.851562 -3.6875 C 9.0625 -3.6875 6.601562 -6.796875 6.601562 -11.652344 Z M 6.601562 -11.652344 "/></g></g></g><g fill="#ffffff" fill-opacity="1"><g transform="translate(89.815429, 286.1454)"><g><path d="M 1.390625 0 L 11.164062 0 L 11.164062 -3.625 L 8.707031 -3.625 L 8.707031 -9.902344 L 20.746094 -9.902344 L 20.746094 -3.625 L 18.285156 -3.625 L 18.285156 0 L 28.089844 0 L 28.089844 -3.625 L 25.597656 -3.625 L 25.597656 -19.742188 L 28.089844 -19.742188 L 28.089844 -23.367188 L 18.285156 -23.367188 L 18.285156 -19.742188 L 20.746094 -19.742188 L 20.746094 -13.558594 L 8.707031 -13.558594 L 8.707031 -19.742188 L 11.164062 -19.742188 L 11.164062 -23.367188 L 1.390625 -23.367188 L 1.390625 -19.742188 L 3.851562 -19.742188 L 3.851562 -3.625 L 1.390625 -3.625 Z M 1.390625 0 "/></g></g></g><g fill="#ffffff" fill-opacity="1"><g transform="translate(119.258924, 286.1454)"><g><path d="M 2.296875 0 L 21.617188 0 L 21.617188 -5.695312 L 17.863281 -5.695312 L 17.863281 -3.625 L 9.578125 -3.625 L 9.578125 -10.226562 L 18.347656 -10.226562 L 18.347656 -13.882812 L 9.578125 -13.882812 L 9.578125 -19.742188 L 16.730469 -19.742188 L 16.730469 -17.671875 L 20.484375 -17.671875 L 20.484375 -23.367188 L 2.296875 -23.367188 L 2.296875 -19.742188 L 4.726562 -19.742188 L 4.726562 -3.625 L 2.296875 -3.625 Z M 2.296875 0 "/></g></g></g><g fill="#ffffff" fill-opacity="1"><g transform="translate(142.231324, 286.1454)"><g><path d="M 1.390625 0 L 20.484375 0 L 20.484375 -5.695312 L 16.765625 -5.695312 L 16.765625 -3.625 L 8.738281 -3.625 L 8.738281 -19.742188 L 11.164062 -19.742188 L 11.164062 -23.367188 L 1.390625 -23.367188 L 1.390625 -19.742188 L 3.882812 -19.742188 L 3.882812 -3.625 L 1.390625 -3.625 Z M 1.390625 0 "/></g></g></g><g fill="#ffffff" fill-opacity="1"><g transform="translate(163.327098, 286.1454)"><g><path d="M 12.621094 -11.554688 C 11.457031 -11.554688 10.519531 -11.714844 9.546875 -12.039062 L 9.546875 -19.742188 L 11.199219 -19.742188 C 14.464844 -19.742188 16.957031 -18.480469 16.957031 -15.632812 C 16.957031 -12.945312 15.179688 -11.554688 12.621094 -11.554688 Z M 2.265625 0 L 12.070312 0 L 12.070312 -3.625 L 9.546875 -3.625 L 9.546875 -8.445312 C 10.746094 -8.15625 11.972656 -7.992188 13.171875 -7.992188 C 18.347656 -8.089844 21.78125 -10.421875 21.78125 -15.5 C 21.78125 -20.746094 17.507812 -23.367188 11.878906 -23.367188 L 2.265625 -23.367188 L 2.265625 -19.742188 L 4.726562 -19.742188 L 4.726562 -3.625 L 2.265625 -3.625 Z M 2.265625 0 "/></g></g></g><g fill="#ffffff" fill-opacity="1"><g transform="translate(186.234781, 286.1454)"><g><path d="M 2.296875 0 L 13.753906 0 C 21.84375 0 26.570312 -3.625 26.570312 -11.457031 C 26.570312 -19.515625 21.84375 -23.367188 13.558594 -23.367188 L 2.296875 -23.367188 L 2.296875 -19.742188 L 4.691406 -19.742188 L 4.691406 -3.625 L 2.296875 -3.625 Z M 13.332031 -19.742188 C 18.933594 -19.742188 21.746094 -16.859375 21.746094 -11.328125 C 21.746094 -6.277344 19.191406 -3.625 14.140625 -3.625 L 9.515625 -3.625 L 9.515625 -19.742188 Z M 13.332031 -19.742188 "/></g></g></g><g fill="#ffffff" fill-opacity="1"><g transform="translate(214.545826, 286.1454)"><g><path d="M 2.296875 0 L 21.617188 0 L 21.617188 -5.695312 L 17.863281 -5.695312 L 17.863281 -3.625 L 9.578125 -3.625 L 9.578125 -10.226562 L 18.347656 -10.226562 L 18.347656 -13.882812 L 9.578125 -13.882812 L 9.578125 -19.742188 L 16.730469 -19.742188 L 16.730469 -17.671875 L 20.484375 -17.671875 L 20.484375 -23.367188 L 2.296875 -23.367188 L 2.296875 -19.742188 L 4.726562 -19.742188 L 4.726562 -3.625 L 2.296875 -3.625 Z M 2.296875 0 "/></g></g></g><g fill="#ffffff" fill-opacity="1"><g transform="translate(237.518225, 286.1454)"><g><path d="M 10.519531 0.160156 C 15.921875 0.160156 20.484375 -1.488281 20.484375 -6.277344 C 20.484375 -10.421875 16.992188 -11.941406 13.007812 -13.558594 C 10.226562 -14.691406 7.183594 -15.792969 7.183594 -17.539062 L 7.183594 -17.574219 C 7.183594 -19.222656 8.898438 -19.902344 10.972656 -19.902344 C 12.492188 -19.902344 13.785156 -19.546875 15.046875 -19.0625 L 15.046875 -16.601562 L 18.800781 -16.601562 L 18.800781 -21.390625 C 16.246094 -22.6875 14.078125 -23.367188 11.132812 -23.367188 C 6.214844 -23.367188 2.332031 -21.554688 2.332031 -17.28125 C 2.332031 -13.234375 5.824219 -11.78125 9.742188 -10.195312 C 12.589844 -9.0625 15.632812 -8.027344 15.632812 -6.179688 C 15.632812 -4.5625 13.332031 -3.625 10.710938 -3.625 C 8.964844 -3.625 7.574219 -4.011719 6.117188 -4.691406 L 6.117188 -6.828125 L 2.394531 -6.828125 L 2.394531 -1.714844 L 2.425781 -1.714844 C 5.113281 -0.324219 7.410156 0.160156 10.519531 0.160156 Z M 10.519531 0.160156 "/></g></g></g><g fill="#ffffff" fill-opacity="1"><g transform="translate(259.617016, 286.1454)"><g><path d="M 1.390625 0 L 10.777344 0 L 10.777344 -3.625 L 8.640625 -3.625 L 8.640625 -11.066406 L 19.191406 0 C 19.613281 0 19.933594 0 20.226562 -0.03125 L 20.226562 0 L 24.660156 0 L 24.660156 -3.625 L 21.652344 -3.625 L 13.140625 -12.296875 L 20.613281 -19.742188 L 23.429688 -19.742188 L 23.429688 -23.367188 L 12.816406 -23.367188 L 12.816406 -19.742188 L 14.886719 -19.742188 L 8.640625 -13.460938 L 8.640625 -19.742188 L 10.386719 -19.742188 L 10.386719 -23.367188 L 1.390625 -23.367188 L 1.390625 -19.742188 L 3.820312 -19.742188 L 3.820312 -3.625 L 1.390625 -3.625 Z M 1.390625 0 "/></g></g></g></svg>