<svg xmlns="http://www.w3.org/2000/svg" xmlns:xlink="http://www.w3.org/1999/xlink" zoomAndPan="magnify" viewBox="0 0 375 374.999991" version="1.0"><defs><g/><clipPath id="ae12b0d538"><path d="M 56.648438 129.332031 L 315.605469 129.332031 L 315.605469 246.371094 L 56.648438 246.371094 Z M 56.648438 129.332031 " clip-rule="nonzero"/></clipPath><clipPath id="9c4b4271b1"><path d="M 56.648438 199 L 157 199 L 157 246.089844 L 56.648438 246.089844 Z M 56.648438 199 " clip-rule="nonzero"/></clipPath><clipPath id="195f22ea13"><path d="M 73 133.007812 L 140 133.007812 L 140 187 L 73 187 Z M 73 133.007812 " clip-rule="nonzero"/></clipPath></defs><g clip-path="url(#ae12b0d538)"><path fill="#374249" d="M 56.648438 129.332031 L 315.605469 129.332031 L 315.605469 246.371094 L 56.648438 246.371094 Z M 56.648438 129.332031 " fill-opacity="1" fill-rule="nonzero"/></g><g clip-path="url(#9c4b4271b1)"><path fill="#00638d" d="M 155.964844 237.914062 L 150.636719 210.25 L 150.535156 209.722656 C 150.265625 208.308594 149.394531 207.167969 148.117188 206.519531 C 147.402344 206.175781 146.550781 205.753906 145.566406 205.292969 C 144.640625 204.851562 143.601562 204.375 142.5 203.863281 C 142.484375 203.84375 142.464844 203.84375 142.429688 203.84375 C 139.3125 202.382812 135.671875 200.746094 132.316406 199.367188 C 131.957031 199.8125 131.601562 200.238281 131.230469 200.679688 C 128.757812 203.695312 126.1875 206.722656 123.550781 209.648438 C 122.171875 211.183594 120.773438 212.683594 119.378906 214.113281 C 117.386719 216.15625 115.378906 218.078125 113.335938 219.851562 L 110.03125 206.851562 L 110.917969 203.089844 L 102.878906 203.089844 L 103.765625 206.851562 L 100.460938 219.851562 C 98.417969 218.078125 96.410156 216.15625 94.417969 214.113281 C 93.023438 212.683594 91.628906 211.183594 90.246094 209.648438 C 87.609375 206.722656 85.039062 203.695312 82.566406 200.679688 C 82.195312 200.238281 81.839844 199.8125 81.480469 199.367188 C 78.125 200.746094 74.480469 202.382812 71.367188 203.84375 C 71.332031 203.84375 71.3125 203.84375 71.300781 203.863281 C 70.191406 204.375 69.15625 204.851562 68.230469 205.292969 C 67.246094 205.753906 66.394531 206.175781 65.679688 206.519531 C 64.402344 207.167969 63.535156 208.308594 63.261719 209.722656 L 63.160156 210.25 L 57.832031 237.914062 L 56.945312 242.496094 C 56.945312 242.496094 57.25 244.316406 58.070312 244.980469 C 58.867188 245.695312 59.859375 246.070312 60.996094 246.070312 L 152.796875 246.070312 C 153.9375 246.070312 154.929688 245.695312 155.726562 244.980469 C 156.546875 244.316406 156.851562 242.496094 156.851562 242.496094 L 155.964844 237.914062 " fill-opacity="1" fill-rule="nonzero"/></g><g clip-path="url(#195f22ea13)"><path fill="#00638d" d="M 76.363281 174.65625 C 76.636719 175.554688 77.582031 176.066406 78.484375 175.796875 C 78.484375 175.796875 84.886719 174.160156 85.402344 173.960938 L 83.183594 164.34375 C 82.980469 163.085938 82.886719 161.816406 82.886719 160.542969 C 82.886719 147.265625 93.648438 136.503906 106.921875 136.503906 C 120.199219 136.503906 130.960938 147.265625 130.960938 160.542969 C 130.960938 161.816406 130.867188 163.085938 130.664062 164.34375 L 129.199219 170.691406 C 128.859375 172.171875 128.675781 173.699219 127.964844 175.050781 C 125.035156 180.652344 117.046875 181.527344 111.152344 181.765625 C 110.613281 180.539062 109.394531 179.679688 107.96875 179.679688 L 104.722656 179.679688 C 102.796875 179.679688 101.238281 181.238281 101.238281 183.160156 C 101.238281 185.085938 102.796875 186.640625 104.722656 186.640625 L 107.96875 186.640625 C 109.460938 186.640625 110.726562 185.695312 111.21875 184.375 C 118.742188 184.050781 128.148438 182.703125 130.941406 174.691406 L 135.3125 176.007812 C 136.214844 176.273438 137.160156 175.765625 137.433594 174.867188 L 139.601562 167.644531 C 140.472656 164.753906 138.832031 161.703125 135.9375 160.835938 L 134.4375 160.382812 C 134.351562 145.253906 122.058594 133.023438 106.921875 133.023438 C 91.859375 133.023438 79.628906 145.132812 79.421875 160.160156 L 77.859375 160.628906 C 74.964844 161.496094 73.328125 164.542969 74.195312 167.433594 L 76.363281 174.65625 " fill-opacity="1" fill-rule="nonzero"/></g><path fill="#00638d" d="M 121.359375 172.257812 C 121.105469 174.085938 120.832031 175.765625 120.472656 177.328125 C 122.632812 176.578125 124.386719 175.4375 125.316406 173.667969 C 125.664062 173.007812 125.824219 172.140625 126.035156 171.136719 C 126.035156 171.121094 126.050781 171.121094 126.035156 171.101562 C 126.574219 166.589844 126.769531 162.046875 126.769531 157.488281 C 126.769531 156.394531 126.648438 155.300781 126.441406 154.234375 C 125.675781 150.605469 123.667969 147.324219 120.621094 145.101562 C 115.238281 141.171875 109.8125 140.785156 107.9375 140.785156 C 107.488281 140.785156 107.246094 140.816406 107.246094 140.816406 C 107.246094 140.816406 107.113281 140.816406 106.902344 140.796875 C 106.679688 140.816406 106.558594 140.816406 106.558594 140.816406 C 106.558594 140.816406 106.316406 140.785156 105.867188 140.785156 C 103.996094 140.785156 98.566406 141.171875 93.183594 145.101562 C 91.832031 146.09375 90.675781 147.289062 89.761719 148.644531 C 87.992188 151.203125 87.035156 154.292969 87.035156 157.488281 C 87.035156 161.851562 87.199219 166.230469 87.695312 170.5625 C 87.738281 171.015625 87.800781 171.480469 87.859375 171.929688 C 87.886719 172.246094 87.933594 172.558594 87.980469 172.875 C 88.125 173.925781 88.277344 174.972656 88.457031 175.992188 C 89.3125 180.925781 90.75 185.574219 94.277344 189.445312 C 97.1875 193.011719 101.59375 195.277344 106.558594 195.277344 C 106.664062 195.277344 106.78125 195.261719 106.902344 195.261719 C 107.007812 195.261719 107.128906 195.277344 107.246094 195.277344 C 112.210938 195.277344 116.621094 193.011719 119.53125 189.445312 C 120.578125 188.304688 121.433594 187.074219 122.136719 185.8125 C 119.875 186.519531 117.59375 186.878906 115.613281 187.074219 C 113.515625 189.414062 110.53125 190.75 107.351562 190.777344 C 107.234375 190.777344 107.113281 190.761719 106.980469 190.761719 L 106.8125 190.761719 C 106.695312 190.761719 106.574219 190.761719 106.4375 190.777344 C 103.0625 190.75 99.898438 189.234375 97.753906 186.609375 L 97.605469 186.414062 C 94.441406 182.933594 93.273438 178.421875 92.429688 172.257812 C 92.105469 169.886719 91.863281 167.414062 91.726562 164.777344 C 93.273438 162.960938 95.117188 161.433594 97.199219 160.277344 C 100.53125 162.796875 104.667969 164.28125 109.167969 164.28125 C 112.691406 164.28125 116.003906 163.367188 118.867188 161.746094 C 120.082031 161.074219 121.222656 160.277344 122.257812 159.363281 C 122.242188 161.238281 122.167969 163.035156 122.078125 164.777344 C 121.929688 167.414062 121.6875 169.886719 121.359375 172.257812 " fill-opacity="1" fill-rule="nonzero"/><g fill="#00638d" fill-opacity="1"><g transform="translate(181.27626, 175.751176)"><g><path d="M 19.421875 -1.925781 L 19.421875 -9.050781 L 12.832031 -9.050781 L 12.832031 -6.320312 L 16.078125 -6.320312 L 16.078125 -3.367188 C 14.613281 -2.878906 13.222656 -2.734375 11.464844 -2.734375 C 7.367188 -2.734375 4.976562 -4.953125 4.976562 -9.050781 C 4.976562 -12.859375 7.320312 -14.882812 11.199219 -14.882812 C 13.027344 -14.882812 14.566406 -14.589844 16.152344 -13.90625 L 16.152344 -12.101562 L 18.980469 -12.101562 L 18.980469 -15.734375 C 16.417969 -17.152344 14.125 -17.738281 11.199219 -17.738281 C 5.171875 -17.738281 1.316406 -14.6875 1.316406 -8.78125 C 1.316406 -2.804688 5.34375 0.121094 11.464844 0.121094 C 14.613281 0.121094 16.613281 -0.5625 19.421875 -1.925781 Z M 19.421875 -1.925781 "/></g></g></g><g fill="#00638d" fill-opacity="1"><g transform="translate(202.302264, 175.751176)"><g><path d="M 1.730469 0 L 16.296875 0 L 16.296875 -4.292969 L 13.46875 -4.292969 L 13.46875 -2.734375 L 7.222656 -2.734375 L 7.222656 -7.710938 L 13.832031 -7.710938 L 13.832031 -10.464844 L 7.222656 -10.464844 L 7.222656 -14.882812 L 12.613281 -14.882812 L 12.613281 -13.320312 L 15.445312 -13.320312 L 15.445312 -17.613281 L 1.730469 -17.613281 L 1.730469 -14.882812 L 3.5625 -14.882812 L 3.5625 -2.734375 L 1.730469 -2.734375 Z M 1.730469 0 "/></g></g></g><g fill="#00638d" fill-opacity="1"><g transform="translate(219.62067, 175.751176)"><g><path d="M 7.929688 0.121094 C 12.003906 0.121094 15.445312 -1.121094 15.445312 -4.734375 C 15.445312 -7.855469 12.808594 -9.003906 9.808594 -10.222656 C 7.710938 -11.078125 5.417969 -11.90625 5.417969 -13.222656 L 5.417969 -13.246094 C 5.417969 -14.492188 6.710938 -15.003906 8.269531 -15.003906 C 9.417969 -15.003906 10.394531 -14.734375 11.34375 -14.371094 L 11.34375 -12.515625 L 14.175781 -12.515625 L 14.175781 -16.125 C 12.246094 -17.101562 10.613281 -17.613281 8.394531 -17.613281 C 4.683594 -17.613281 1.757812 -16.25 1.757812 -13.027344 C 1.757812 -9.980469 4.390625 -8.878906 7.34375 -7.683594 C 9.492188 -6.832031 11.785156 -6.050781 11.785156 -4.660156 C 11.785156 -3.441406 10.050781 -2.734375 8.074219 -2.734375 C 6.757812 -2.734375 5.710938 -3.023438 4.609375 -3.539062 L 4.609375 -5.148438 L 1.804688 -5.148438 L 1.804688 -1.292969 L 1.828125 -1.292969 C 3.855469 -0.242188 5.585938 0.121094 7.929688 0.121094 Z M 7.929688 0.121094 "/></g></g></g><g fill="#00638d" fill-opacity="1"><g transform="translate(236.280482, 175.751176)"><g><path d="M 4.757812 0 L 12.125 0 L 12.125 -2.734375 L 10.296875 -2.734375 L 10.296875 -14.710938 L 13.515625 -14.710938 L 13.515625 -13.296875 L 16.347656 -13.296875 L 16.347656 -17.613281 L 0.585938 -17.613281 L 0.585938 -13.296875 L 3.390625 -13.296875 L 3.390625 -14.710938 L 6.636719 -14.710938 L 6.636719 -2.734375 L 4.757812 -2.734375 Z M 4.757812 0 "/></g></g></g><g fill="#00638d" fill-opacity="1"><g transform="translate(253.208607, 175.751176)"><g><path d="M 12.859375 -18.835938 C 14.882812 -18.835938 15.90625 -20.226562 16.640625 -22.175781 C 15.25 -22.835938 15.222656 -22.835938 15.222656 -22.835938 C 15.222656 -22.835938 15.222656 -22.859375 13.785156 -23.542969 C 13.441406 -22.664062 13.027344 -22.105469 12.441406 -22.105469 C 11.6875 -22.105469 11.273438 -22.324219 10.710938 -22.761719 C 9.808594 -23.445312 9.171875 -23.738281 8.125 -23.738281 C 6.148438 -23.738281 5.027344 -22.324219 4.292969 -20.394531 C 5.636719 -19.714844 5.636719 -19.714844 5.660156 -19.714844 L 7.003906 -19.003906 C 7.464844 -20.054688 7.90625 -20.492188 8.515625 -20.492188 C 9.199219 -20.492188 9.5625 -20.25 10.074219 -19.859375 C 11.078125 -19.101562 11.710938 -18.835938 12.859375 -18.835938 Z M 12.589844 -7.464844 L 7.90625 -7.464844 C 8.710938 -9.464844 9.539062 -11.492188 10.367188 -13.492188 C 11.101562 -11.492188 11.832031 -9.464844 12.589844 -7.464844 Z M -0.0976562 0 L 7.613281 0 L 7.613281 -2.734375 L 5.953125 -2.734375 C 6.222656 -3.34375 6.464844 -3.953125 6.710938 -4.5625 L 13.664062 -4.5625 C 13.882812 -3.953125 14.125 -3.34375 14.34375 -2.734375 L 12.492188 -2.734375 L 12.492188 0 L 20.199219 0 L 20.199219 -2.734375 L 18.128906 -2.734375 C 16.152344 -7.710938 14.078125 -12.613281 12.125 -17.613281 L 8.78125 -17.613281 C 6.585938 -12.613281 4.246094 -7.710938 2 -2.734375 L -0.0976562 -2.734375 Z M -0.0976562 0 "/></g></g></g><g fill="#00638d" fill-opacity="1"><g transform="translate(273.722374, 175.751176)"><g><path d="M 1.316406 -8.78125 C 1.316406 -3.246094 4.734375 0.121094 10.269531 0.121094 C 15.90625 0.121094 19.394531 -3.269531 19.394531 -8.855469 C 19.394531 -14.34375 16.003906 -17.738281 10.464844 -17.738281 C 4.832031 -17.738281 1.316406 -14.34375 1.316406 -8.78125 Z M 4.976562 -8.78125 C 4.976562 -12.394531 6.660156 -14.859375 10.222656 -14.859375 C 13.808594 -14.859375 15.734375 -12.515625 15.734375 -8.855469 C 15.734375 -5.222656 14.003906 -2.78125 10.441406 -2.78125 C 6.832031 -2.78125 4.976562 -5.125 4.976562 -8.78125 Z M 4.976562 -8.78125 "/></g></g></g><g fill="#ffffff" fill-opacity="1"><g transform="translate(164.216807, 209.675722)"><g><path d="M 1.050781 0 L 8.417969 0 L 8.417969 -2.734375 L 6.5625 -2.734375 L 6.5625 -7.464844 L 15.640625 -7.464844 L 15.640625 -2.734375 L 13.785156 -2.734375 L 13.785156 0 L 21.175781 0 L 21.175781 -2.734375 L 19.296875 -2.734375 L 19.296875 -14.882812 L 21.175781 -14.882812 L 21.175781 -17.613281 L 13.785156 -17.613281 L 13.785156 -14.882812 L 15.640625 -14.882812 L 15.640625 -10.222656 L 6.5625 -10.222656 L 6.5625 -14.882812 L 8.417969 -14.882812 L 8.417969 -17.613281 L 1.050781 -17.613281 L 1.050781 -14.882812 L 2.902344 -14.882812 L 2.902344 -2.734375 L 1.050781 -2.734375 Z M 1.050781 0 "/></g></g></g><g fill="#ffffff" fill-opacity="1"><g transform="translate(186.413635, 209.675722)"><g><path d="M 1.730469 0 L 16.296875 0 L 16.296875 -4.292969 L 13.46875 -4.292969 L 13.46875 -2.734375 L 7.222656 -2.734375 L 7.222656 -7.710938 L 13.832031 -7.710938 L 13.832031 -10.464844 L 7.222656 -10.464844 L 7.222656 -14.882812 L 12.613281 -14.882812 L 12.613281 -13.320312 L 15.445312 -13.320312 L 15.445312 -17.613281 L 1.730469 -17.613281 L 1.730469 -14.882812 L 3.5625 -14.882812 L 3.5625 -2.734375 L 1.730469 -2.734375 Z M 1.730469 0 "/></g></g></g><g fill="#ffffff" fill-opacity="1"><g transform="translate(203.732041, 209.675722)"><g><path d="M 1.050781 0 L 15.445312 0 L 15.445312 -4.292969 L 12.636719 -4.292969 L 12.636719 -2.734375 L 6.585938 -2.734375 L 6.585938 -14.882812 L 8.417969 -14.882812 L 8.417969 -17.613281 L 1.050781 -17.613281 L 1.050781 -14.882812 L 2.925781 -14.882812 L 2.925781 -2.734375 L 1.050781 -2.734375 Z M 1.050781 0 "/></g></g></g><g fill="#ffffff" fill-opacity="1"><g transform="translate(219.635699, 209.675722)"><g><path d="M 9.515625 -8.710938 C 8.636719 -8.710938 7.929688 -8.832031 7.195312 -9.074219 L 7.195312 -14.882812 L 8.441406 -14.882812 C 10.90625 -14.882812 12.785156 -13.929688 12.785156 -11.785156 C 12.785156 -9.757812 11.441406 -8.710938 9.515625 -8.710938 Z M 1.707031 0 L 9.101562 0 L 9.101562 -2.734375 L 7.195312 -2.734375 L 7.195312 -6.367188 C 8.101562 -6.148438 9.027344 -6.027344 9.929688 -6.027344 C 13.832031 -6.097656 16.417969 -7.855469 16.417969 -11.6875 C 16.417969 -15.640625 13.199219 -17.613281 8.953125 -17.613281 L 1.707031 -17.613281 L 1.707031 -14.882812 L 3.5625 -14.882812 L 3.5625 -2.734375 L 1.707031 -2.734375 Z M 1.707031 0 "/></g></g></g><g fill="#ffffff" fill-opacity="1"><g transform="translate(236.905317, 209.675722)"><g><path d="M 1.730469 0 L 10.367188 0 C 16.46875 0 20.03125 -2.734375 20.03125 -8.636719 C 20.03125 -14.710938 16.46875 -17.613281 10.222656 -17.613281 L 1.730469 -17.613281 L 1.730469 -14.882812 L 3.539062 -14.882812 L 3.539062 -2.734375 L 1.730469 -2.734375 Z M 10.050781 -14.882812 C 14.273438 -14.882812 16.394531 -12.710938 16.394531 -8.539062 C 16.394531 -4.734375 14.46875 -2.734375 10.660156 -2.734375 L 7.171875 -2.734375 L 7.171875 -14.882812 Z M 10.050781 -14.882812 "/></g></g></g><g fill="#ffffff" fill-opacity="1"><g transform="translate(258.248415, 209.675722)"><g><path d="M 1.730469 0 L 16.296875 0 L 16.296875 -4.292969 L 13.46875 -4.292969 L 13.46875 -2.734375 L 7.222656 -2.734375 L 7.222656 -7.710938 L 13.832031 -7.710938 L 13.832031 -10.464844 L 7.222656 -10.464844 L 7.222656 -14.882812 L 12.613281 -14.882812 L 12.613281 -13.320312 L 15.445312 -13.320312 L 15.445312 -17.613281 L 1.730469 -17.613281 L 1.730469 -14.882812 L 3.5625 -14.882812 L 3.5625 -2.734375 L 1.730469 -2.734375 Z M 1.730469 0 "/></g></g></g><g fill="#ffffff" fill-opacity="1"><g transform="translate(275.566821, 209.675722)"><g><path d="M 7.929688 0.121094 C 12.003906 0.121094 15.445312 -1.121094 15.445312 -4.734375 C 15.445312 -7.855469 12.808594 -9.003906 9.808594 -10.222656 C 7.710938 -11.078125 5.417969 -11.90625 5.417969 -13.222656 L 5.417969 -13.246094 C 5.417969 -14.492188 6.710938 -15.003906 8.269531 -15.003906 C 9.417969 -15.003906 10.394531 -14.734375 11.34375 -14.371094 L 11.34375 -12.515625 L 14.175781 -12.515625 L 14.175781 -16.125 C 12.246094 -17.101562 10.613281 -17.613281 8.394531 -17.613281 C 4.683594 -17.613281 1.757812 -16.25 1.757812 -13.027344 C 1.757812 -9.980469 4.390625 -8.878906 7.34375 -7.683594 C 9.492188 -6.832031 11.785156 -6.050781 11.785156 -4.660156 C 11.785156 -3.441406 10.050781 -2.734375 8.074219 -2.734375 C 6.757812 -2.734375 5.710938 -3.023438 4.609375 -3.539062 L 4.609375 -5.148438 L 1.804688 -5.148438 L 1.804688 -1.292969 L 1.828125 -1.292969 C 3.855469 -0.242188 5.585938 0.121094 7.929688 0.121094 Z M 7.929688 0.121094 "/></g></g></g><g fill="#ffffff" fill-opacity="1"><g transform="translate(292.226632, 209.675722)"><g><path d="M 1.050781 0 L 8.125 0 L 8.125 -2.734375 L 6.515625 -2.734375 L 6.515625 -8.34375 L 14.46875 0 C 14.785156 0 15.027344 0 15.25 -0.0234375 L 15.25 0 L 18.589844 0 L 18.589844 -2.734375 L 16.320312 -2.734375 L 9.90625 -9.269531 L 15.542969 -14.882812 L 17.664062 -14.882812 L 17.664062 -17.613281 L 9.660156 -17.613281 L 9.660156 -14.882812 L 11.222656 -14.882812 L 6.515625 -10.148438 L 6.515625 -14.882812 L 7.832031 -14.882812 L 7.832031 -17.613281 L 1.050781 -17.613281 L 1.050781 -14.882812 L 2.878906 -14.882812 L 2.878906 -2.734375 L 1.050781 -2.734375 Z M 1.050781 0 "/></g></g></g></svg>